<svg xmlns:xlink="http://www.w3.org/1999/xlink" xmlns="http://www.w3.org/2000/svg" width="60" height="60" viewBox="0 0 60 60" fill="none">
<path d="M17.5 22.525L17.525 22.4972" stroke="black" stroke-linecap="round" stroke-linejoin="round"/>
<path d="M27.5 22.525L27.525 22.4972" stroke="black" stroke-linecap="round" stroke-linejoin="round"/>
<path d="M17.5 32.5251L17.525 32.4973" stroke="black" stroke-linecap="round" stroke-linejoin="round"/>
<path d="M27.5 32.5251L27.525 32.4973" stroke="black" stroke-linecap="round" stroke-linejoin="round"/>
<path d="M17.5 42.5251L17.525 42.4973" stroke="black" stroke-linecap="round" stroke-linejoin="round"/>
<path d="M27.5 42.5251L27.525 42.4973" stroke="black" stroke-linecap="round" stroke-linejoin="round"/>
<path d="M37.5 52.5H8.1C7.76863 52.5 7.5 52.2314 7.5 51.9V13.1C7.5 12.7686 7.76863 12.5 8.1 12.5H22.5V8.1C22.5 7.76863 22.7686 7.5 23.1 7.5H36.9C37.2314 7.5 37.5 7.76863 37.5 8.1V22.5M37.5 52.5H51.9C52.2314 52.5 52.5 52.2314 52.5 51.9V23.1C52.5 22.7686 52.2314 22.5 51.9 22.5H37.5M37.5 52.5V42.5M37.5 22.5V32.5M37.5 32.5H42.5M37.5 32.5V42.5M37.5 42.5H42.5" stroke="black" stroke-linecap="round" stroke-linejoin="round"/>
</svg>