<svg xmlns:xlink="http://www.w3.org/1999/xlink" xmlns="http://www.w3.org/2000/svg" width="11" height="18" viewBox="0 0 11 18" fill="none">
<path d="M6.44368 7.29681H10.4437L9.99924 9.07459H6.44368V17.0746H4.66591V9.07459H1.11035V7.29681H4.66591V5.63281C4.66591 4.04792 4.83124 3.47281 5.14057 2.89325C5.44369 2.32064 5.91196 1.85237 6.48457 1.54925C7.06413 1.23992 7.63924 1.07458 9.22413 1.07458C9.68813 1.07458 10.0952 1.11903 10.4437 1.20792V2.85236H9.22413C8.04724 2.85236 7.68902 2.9217 7.32368 3.11725C7.05346 3.26125 6.85257 3.46214 6.70857 3.73236C6.51302 4.0977 6.44368 4.45592 6.44368 5.63281V7.29681Z" fill="black" stroke="black" stroke-width="0.8"/>
</svg>