<svg xmlns:xlink="http://www.w3.org/1999/xlink" xmlns="http://www.w3.org/2000/svg" width="60" height="60" viewBox="0 0 60 60" fill="none">
<path d="M17.5 45V37C17.5 33.134 20.634 30 24.5 30H35.5C39.366 30 42.5 33.134 42.5 37V45" stroke="black" stroke-linecap="round" stroke-linejoin="round"/>
<path d="M2.5 45V42C2.5 38.134 5.63401 35 9.5 35H10" stroke="black" stroke-linecap="round" stroke-linejoin="round"/>
<path d="M57.5 45V42C57.5 38.134 54.366 35 50.5 35H50" stroke="black" stroke-linecap="round" stroke-linejoin="round"/>
<path d="M30 30C34.1421 30 37.5 26.6421 37.5 22.5C37.5 18.3579 34.1421 15 30 15C25.8579 15 22.5 18.3579 22.5 22.5C22.5 26.6421 25.8579 30 30 30Z" stroke="black" stroke-linecap="round" stroke-linejoin="round"/>
<path d="M10 35C12.7614 35 15 32.7614 15 30C15 27.2386 12.7614 25 10 25C7.23858 25 5 27.2386 5 30C5 32.7614 7.23858 35 10 35Z" stroke="black" stroke-linecap="round" stroke-linejoin="round"/>
<path d="M50 35C52.7614 35 55 32.7614 55 30C55 27.2386 52.7614 25 50 25C47.2386 25 45 27.2386 45 30C45 32.7614 47.2386 35 50 35Z" stroke="black" stroke-linecap="round" stroke-linejoin="round"/>
</svg>