<svg xmlns:xlink="http://www.w3.org/1999/xlink" xmlns="http://www.w3.org/2000/svg" width="60" height="60" viewBox="0 0 60 60" fill="none">
<path d="M20 47.5C22.7614 47.5 25 45.2614 25 42.5C25 39.7386 22.7614 37.5 20 37.5C17.2386 37.5 15 39.7386 15 42.5C15 45.2614 17.2386 47.5 20 47.5Z" stroke="black" stroke-miterlimit="1.5" stroke-linecap="round" stroke-linejoin="round"/>
<path d="M45 47.5C47.7614 47.5 50 45.2614 50 42.5C50 39.7386 47.7614 37.5 45 37.5C42.2386 37.5 40 39.7386 40 42.5C40 45.2614 42.2386 47.5 45 47.5Z" stroke="black" stroke-miterlimit="1.5" stroke-linecap="round" stroke-linejoin="round"/>
<path d="M25.125 42.5H37.5V15.6C37.5 15.2686 37.2314 15 36.9 15H2.5" stroke="black" stroke-linecap="round"/>
<path d="M14.125 42.5H8.1C7.76863 42.5 7.5 42.2314 7.5 41.9V28.75" stroke="black" stroke-linecap="round"/>
<path d="M5 22.5L15 22.5" stroke="black" stroke-linecap="round" stroke-linejoin="round"/>
<path d="M37.5 22.5H52.1101C52.3472 22.5 52.5621 22.6396 52.6584 22.8563L57.4483 33.6336C57.4824 33.7104 57.5 33.7934 57.5 33.8773V41.9C57.5 42.2314 57.2314 42.5 56.9 42.5H51.25" stroke="black" stroke-linecap="round"/>
<path d="M37.5 42.5H40" stroke="black" stroke-linecap="round"/>
</svg>