<svg width="142" height="142" viewBox="0 0 142 142" fill="none" xmlns="http://www.w3.org/2000/svg">
<path fill-rule="evenodd" clip-rule="evenodd" d="M71 137.562C105.311 137.562 133.125 109.748 133.125 75.4375C133.125 41.1268 105.311 13.3125 71 13.3125C36.6893 13.3125 8.875 41.1268 8.875 75.4375C8.875 86.5796 11.8082 97.0366 16.9445 106.078L8.875 137.562L41.3347 130.036C50.15 134.835 60.2564 137.562 71 137.562ZM71 128.005C100.032 128.005 123.568 104.47 123.568 75.4375C123.568 46.4056 100.032 22.8702 71 22.8702C41.9679 22.8702 18.4327 46.4056 18.4327 75.4375C18.4327 86.6471 21.9412 97.037 27.92 105.569L23.2115 123.226L41.1797 118.734C49.653 124.581 59.9267 128.005 71 128.005Z" fill="#BFC8D0"/>
<path d="M124.25 71C124.25 100.409 100.409 124.25 71 124.25C59.7829 124.25 49.3756 120.782 40.7924 114.859L22.5909 119.409L27.3606 101.523C21.3041 92.88 17.75 82.3551 17.75 71C17.75 41.5908 41.5908 17.75 71 17.75C100.409 17.75 124.25 41.5908 124.25 71Z" fill="url(#paint0_linear_33_2)"/>
<path fill-rule="evenodd" clip-rule="evenodd" d="M71 133.125C105.311 133.125 133.125 105.311 133.125 71C133.125 36.6893 105.311 8.875 71 8.875C36.6893 8.875 8.875 36.6893 8.875 71C8.875 82.1421 11.8082 92.5991 16.9445 101.641L8.875 133.125L41.3347 125.598C50.15 130.398 60.2564 133.125 71 133.125ZM71 123.568C100.032 123.568 123.568 100.032 123.568 71C123.568 41.9679 100.032 18.4327 71 18.4327C41.9679 18.4327 18.4327 41.9679 18.4327 71C18.4327 82.2096 21.9412 92.5995 27.92 101.132L23.2115 118.788L41.1797 114.296C49.653 120.144 59.9267 123.568 71 123.568Z" fill="white"/>
<path d="M55.4688 42.1557C53.992 39.1888 51.7257 39.4515 49.4369 39.4515C45.3459 39.4515 38.9668 44.3517 38.9668 53.4718C38.9668 60.9459 42.2603 69.1273 53.3583 81.3664C64.0686 93.1781 78.1417 99.2881 89.8248 99.08C101.508 98.8723 103.912 88.8182 103.912 85.4231C103.912 83.9184 102.978 83.1675 102.335 82.9634C98.3532 81.0526 91.01 77.4924 89.3393 76.8237C87.6686 76.155 86.7962 77.0598 86.2539 77.5519C84.7389 78.9954 81.7356 83.251 80.707 84.2081C79.6789 85.1653 78.1457 84.6807 77.5076 84.3191C75.1597 83.377 68.7941 80.5454 63.7203 75.6264C57.4448 69.5435 57.0765 67.4504 55.8943 65.5875C54.9487 64.0969 55.6427 63.1828 55.9888 62.783C57.3409 61.2232 59.2078 58.8145 60.0451 57.6177C60.8821 56.4205 60.2178 54.6033 59.8188 53.4718C58.1037 48.6038 56.6505 44.5289 55.4688 42.1557Z" fill="white"/>
<defs>
<linearGradient id="paint0_linear_33_2" x1="117.594" y1="31.0625" x2="17.75" y2="124.25" gradientUnits="userSpaceOnUse">
<stop/>
<stop offset="1"/>
</linearGradient>
</defs>
</svg>
