<svg width="162" height="40" viewBox="0 0 162 40" fill="none" xmlns="http://www.w3.org/2000/svg">
<path d="M10.5105 0.290392C9.91485 0.120202 9.27663 0.460582 9.10644 1.05625L0.0438101 33.4775C-0.12638 34.0732 0.214 34.7114 0.809666 34.8816C0.894762 34.9241 1.0224 34.9241 1.1075 34.9241C1.61807 34.9241 2.04355 34.5837 2.21374 34.1157L11.3189 1.69446C11.4891 1.0988 11.1487 0.460582 10.5105 0.290392Z" fill="white"/>
<path d="M31.6992 33.4777L22.594 1.09897C22.4238 0.503307 21.7856 0.162927 21.1899 0.333117C20.5942 0.503307 20.2539 1.14152 20.4241 1.73719L29.4867 34.1584C29.6143 34.669 30.0824 34.9668 30.5929 34.9668C30.678 34.9668 30.8057 34.9668 30.8908 34.9243C31.4864 34.7116 31.8694 34.0733 31.6992 33.4777Z" fill="white"/>
<path d="M15.829 30.5417C15.1907 30.5417 14.6802 31.0523 14.6802 31.6905V37.6046C14.6802 38.2429 15.1907 38.7534 15.829 38.7534C16.4672 38.7534 16.9777 38.2429 16.9777 37.6046V31.648C16.9352 31.0523 16.4246 30.5417 15.829 30.5417Z" fill="white"/>
<path d="M15.829 18.2456C15.1907 18.2456 14.6802 18.7562 14.6802 19.3944V25.3085C14.6802 25.9467 15.1907 26.4573 15.829 26.4573C16.4672 26.4573 16.9777 25.9467 16.9777 25.3085V19.3944C16.9352 18.7562 16.4246 18.2456 15.829 18.2456Z" fill="white"/>
<path d="M15.829 5.9917C15.1907 5.9917 14.6802 6.50227 14.6802 7.14048V13.0546C14.6802 13.6928 15.1907 14.2034 15.829 14.2034C16.4672 14.2034 16.9777 13.6928 16.9777 13.0546V7.09794C16.9352 6.50227 16.4246 5.9917 15.829 5.9917Z" fill="white"/>
<path d="M49.9348 8.18936C49.9348 7.13074 49.3559 6.5518 48.2973 6.5518H44.9725C43.9139 6.5518 43.335 7.13074 43.335 8.18936V15.4839C43.335 15.8478 43.153 16.0298 42.8057 16.0298H41.4989C41.135 16.0298 40.9531 15.8478 40.9531 15.4839V7.85854C40.9531 5.69167 42.1606 4.4511 44.3605 4.4511H48.165C49.604 4.4511 50.5965 4.99695 51.1258 5.97287C51.6386 4.99695 52.6476 4.4511 54.0866 4.4511H57.8911C60.091 4.4511 61.2985 5.69167 61.2985 7.85854V15.4839C61.2985 15.8478 61.1165 16.0298 60.7526 16.0298H59.4459C59.0985 16.0298 58.9166 15.8478 58.9166 15.4839V8.18936C58.9166 7.13074 58.3377 6.5518 57.279 6.5518H53.9543C52.8957 6.5518 52.3167 7.13074 52.3167 8.18936V15.4839C52.3167 15.8478 52.1348 16.0298 51.7874 16.0298H50.4642C50.1168 16.0298 49.9348 15.8478 49.9348 15.4839V8.18936ZM71.6325 10.9021V10.472C71.6325 9.76075 71.1859 9.33069 70.4911 9.33069H63.6928C63.3785 9.33069 63.2297 9.18182 63.2297 8.851V7.90816C63.2297 7.57735 63.3785 7.42848 63.6928 7.42848H71.1859C72.7407 7.42848 73.7828 8.47056 73.7828 10.0254V13.5983C73.7828 15.1531 72.9061 16.0298 71.3513 16.0298H65.2146C63.6763 16.0298 62.8657 15.2027 62.8657 13.681V13.2509C62.8657 11.7126 63.6763 10.9021 65.2146 10.9021H71.6325ZM65.777 14.1276H70.8054C71.3678 14.1276 71.6325 13.8298 71.6325 13.3005V12.5562H65.777C65.2311 12.5562 65.0326 12.8208 65.0326 13.3005V13.3832C65.0326 13.8795 65.2311 14.1276 65.777 14.1276ZM75.6346 10.0254C75.6346 8.47056 76.6932 7.42848 78.2481 7.42848H82.3668C82.6811 7.42848 82.8465 7.57735 82.8465 7.90816V8.851C82.8465 9.18182 82.6811 9.33069 82.3668 9.33069H78.9428C78.2315 9.33069 77.8015 9.76075 77.8015 10.472V15.5501C77.8015 15.8809 77.6526 16.0298 77.3218 16.0298H76.1143C75.8 16.0298 75.6346 15.8809 75.6346 15.5501V10.0254ZM84.2282 10.0254C84.2282 8.47056 85.2868 7.42848 86.8416 7.42848H90.9603C91.2746 7.42848 91.44 7.57735 91.44 7.90816V8.851C91.44 9.18182 91.2746 9.33069 90.9603 9.33069H87.5364C86.8251 9.33069 86.395 9.76075 86.395 10.472V15.5501C86.395 15.8809 86.2462 16.0298 85.9153 16.0298H84.7079C84.3936 16.0298 84.2282 15.8809 84.2282 15.5501V10.0254ZM101.258 10.9021V10.472C101.258 9.76075 100.811 9.33069 100.116 9.33069H93.3179C93.0037 9.33069 92.8548 9.18182 92.8548 8.851V7.90816C92.8548 7.57735 93.0037 7.42848 93.3179 7.42848H100.811C102.366 7.42848 103.408 8.47056 103.408 10.0254V13.5983C103.408 15.1531 102.531 16.0298 100.976 16.0298H94.8397C93.3014 16.0298 92.4909 15.2027 92.4909 13.681V13.2509C92.4909 11.7126 93.3014 10.9021 94.8397 10.9021H101.258ZM95.4021 14.1276H100.431C100.993 14.1276 101.258 13.8298 101.258 13.3005V12.5562H95.4021C94.8563 12.5562 94.6578 12.8208 94.6578 13.3005V13.3832C94.6578 13.8795 94.8563 14.1276 95.4021 14.1276ZM107.476 15.5501C107.476 15.8809 107.327 16.0298 107.013 16.0298H105.806C105.475 16.0298 105.326 15.8809 105.326 15.5501V4.30223C105.326 3.97141 105.475 3.82254 105.806 3.82254H107.013C107.327 3.82254 107.476 3.97141 107.476 4.30223V10.7532H110.206L113.464 7.67659C113.646 7.4781 113.811 7.42848 114.192 7.42848H115.681C116.028 7.42848 116.094 7.80892 115.896 8.00741L111.942 11.696L115.962 15.4509C116.16 15.6493 116.094 16.0298 115.747 16.0298H114.225C113.845 16.0298 113.679 15.9802 113.481 15.7817L110.189 12.6554H107.476V15.5501ZM119.97 7.42848H125.925C127.463 7.42848 128.29 8.25553 128.29 9.7773V10.2074C128.29 11.7457 127.463 12.5562 125.925 12.5562H119.524V12.9862C119.524 13.6975 119.954 14.1276 120.665 14.1276H127.48C127.794 14.1276 127.959 14.2764 127.959 14.6073V15.5501C127.959 15.8809 127.794 16.0298 127.48 16.0298H119.97C118.415 16.0298 117.373 14.9877 117.373 13.4329V10.0254C117.373 8.47056 118.415 7.42848 119.97 7.42848ZM119.524 10.472V10.9021H125.379C125.925 10.9021 126.123 10.6374 126.123 10.1577V10.075C126.123 9.5788 125.925 9.33069 125.379 9.33069H120.665C119.954 9.33069 119.524 9.76075 119.524 10.472ZM139.736 14.1276C140.05 14.1276 140.199 14.2764 140.199 14.6073V15.5501C140.199 15.8809 140.05 16.0298 139.736 16.0298H132.408C130.853 16.0298 129.811 14.9877 129.811 13.4329V10.0254C129.811 8.47056 130.853 7.42848 132.408 7.42848H139.736C140.05 7.42848 140.199 7.57735 140.199 7.90816V8.851C140.199 9.18182 140.05 9.33069 139.736 9.33069H133.103C132.392 9.33069 131.962 9.76075 131.962 10.472V12.9862C131.962 13.6975 132.392 14.1276 133.103 14.1276H139.736ZM150.069 7.42848C151.623 7.42848 152.666 8.47056 152.666 10.0254V15.5501C152.666 15.8809 152.517 16.0298 152.202 16.0298H150.995C150.664 16.0298 150.515 15.8809 150.515 15.5501V10.472C150.515 9.76075 150.085 9.33069 149.374 9.33069H145.172C144.478 9.33069 144.031 9.76075 144.031 10.472V15.5501C144.031 15.8809 143.882 16.0298 143.568 16.0298H142.361C142.03 16.0298 141.881 15.8809 141.881 15.5501V4.30223C141.881 3.97141 142.03 3.82254 142.361 3.82254H143.568C143.882 3.82254 144.031 3.97141 144.031 4.30223V8.37131C144.428 7.79238 145.106 7.42848 146.099 7.42848H150.069ZM48.8597 26.5518V35.4839C48.8597 35.8478 48.6777 36.0298 48.3138 36.0298H47.0071C46.6432 36.0298 46.4612 35.8478 46.4612 35.4839V26.5518H40.9696C40.6057 26.5518 40.4403 26.3699 40.4403 26.0225V24.997C40.4403 24.6331 40.6057 24.4511 40.9696 24.4511H54.3513C54.6986 24.4511 54.8806 24.6331 54.8806 24.997V26.0225C54.8806 26.3699 54.6986 26.5518 54.3513 26.5518H48.8597ZM55.5561 30.0254C55.5561 28.4706 56.6147 27.4285 58.1695 27.4285H62.2882C62.6025 27.4285 62.7679 27.5773 62.7679 27.9082V28.851C62.7679 29.1818 62.6025 29.3307 62.2882 29.3307H58.8643C58.153 29.3307 57.7229 29.7608 57.7229 30.472V35.5501C57.7229 35.8809 57.5741 36.0298 57.2432 36.0298H56.0357C55.7215 36.0298 55.5561 35.8809 55.5561 35.5501V30.0254ZM72.5855 30.9021V30.472C72.5855 29.7608 72.1389 29.3307 71.4442 29.3307H64.6458C64.3316 29.3307 64.1827 29.1818 64.1827 28.851V27.9082C64.1827 27.5773 64.3316 27.4285 64.6458 27.4285H72.1389C73.6938 27.4285 74.7358 28.4706 74.7358 30.0254V33.5983C74.7358 35.1531 73.8592 36.0298 72.3043 36.0298H66.1676C64.6293 36.0298 63.8188 35.2027 63.8188 33.681V33.2509C63.8188 31.7126 64.6293 30.9021 66.1676 30.9021H72.5855ZM66.73 34.1276H71.7585C72.3209 34.1276 72.5855 33.8298 72.5855 33.3005V32.5562H66.73C66.1842 32.5562 65.9857 32.8208 65.9857 33.3005V33.3832C65.9857 33.8795 66.1842 34.1276 66.73 34.1276ZM76.5877 30.0254C76.5877 28.4706 77.6463 27.4285 79.2011 27.4285H84.792C86.3468 27.4285 87.3889 28.4706 87.3889 30.0254V35.5501C87.3889 35.8809 87.24 36.0298 86.9092 36.0298H85.7017C85.3875 36.0298 85.2386 35.8809 85.2386 35.5501V30.472C85.2386 29.7608 84.792 29.3307 84.0973 29.3307H79.8958C79.1846 29.3307 78.7545 29.7608 78.7545 30.472V35.5501C78.7545 35.8809 78.6057 36.0298 78.2748 36.0298H77.0673C76.7531 36.0298 76.5877 35.8809 76.5877 35.5501V30.0254ZM97.4054 36.0298H89.6146C89.2838 36.0298 89.1349 35.8809 89.1349 35.5501V34.6073C89.1349 34.2764 89.2838 34.1276 89.6146 34.1276H96.8595C97.4054 34.1276 97.6039 33.8795 97.6039 33.3832V33.3005C97.6039 32.8208 97.4054 32.5562 96.8595 32.5562H91.3183C89.78 32.5562 88.9695 31.7457 88.9695 30.2074V29.7773C88.9695 28.2555 89.78 27.4285 91.3183 27.4285H98.9602C99.2745 27.4285 99.4399 27.5773 99.4399 27.9082V28.851C99.4399 29.1818 99.2745 29.3307 98.9602 29.3307H91.8807C91.3348 29.3307 91.1363 29.5788 91.1363 30.075V30.1577C91.1363 30.6374 91.3348 30.9021 91.8807 30.9021H97.4054C98.9437 30.9021 99.7707 31.7126 99.7707 33.2509V33.681C99.7707 35.2027 98.9437 36.0298 97.4054 36.0298ZM109.803 36.0298H105.585C104.593 36.0298 103.931 35.6824 103.518 35.1035V39.0733C103.518 39.4041 103.369 39.553 103.038 39.553H101.83C101.516 39.553 101.351 39.4041 101.351 39.0733V30.0254C101.351 28.4706 102.409 27.4285 103.964 27.4285H109.803C111.358 27.4285 112.417 28.4706 112.417 30.0254V33.4329C112.417 34.9877 111.358 36.0298 109.803 36.0298ZM103.518 30.472V32.9862C103.518 33.6975 103.948 34.1276 104.659 34.1276H109.108C109.82 34.1276 110.25 33.6975 110.25 32.9862V30.472C110.25 29.7608 109.82 29.3307 109.108 29.3307H104.659C103.948 29.3307 103.518 29.7608 103.518 30.472ZM116.788 36.0298C115.233 36.0298 114.191 34.9877 114.191 33.4329V30.0254C114.191 28.4706 115.233 27.4285 116.788 27.4285H122.627C124.182 27.4285 125.24 28.4706 125.24 30.0254V33.4329C125.24 34.9877 124.182 36.0298 122.627 36.0298H116.788ZM117.483 29.3307C116.771 29.3307 116.341 29.7608 116.341 30.472V32.9862C116.341 33.6975 116.771 34.1276 117.483 34.1276H121.932C122.643 34.1276 123.073 33.6975 123.073 32.9862V30.472C123.073 29.7608 122.643 29.3307 121.932 29.3307H117.483ZM127.083 30.0254C127.083 28.4706 128.141 27.4285 129.696 27.4285H133.815C134.129 27.4285 134.295 27.5773 134.295 27.9082V28.851C134.295 29.1818 134.129 29.3307 133.815 29.3307H130.391C129.68 29.3307 129.25 29.7608 129.25 30.472V35.5501C129.25 35.8809 129.101 36.0298 128.77 36.0298H127.563C127.248 36.0298 127.083 35.8809 127.083 35.5501V30.0254ZM143.054 34.1276C143.385 34.1276 143.533 34.2764 143.533 34.6073V35.5501C143.533 35.8809 143.385 36.0298 143.054 36.0298H139.1C137.546 36.0298 136.503 34.9877 136.503 33.4329V29.3307H135.61C135.296 29.3307 135.147 29.1818 135.147 28.851V27.9082C135.147 27.5773 135.296 27.4285 135.61 27.4285H136.503V25.8405C136.503 25.5097 136.652 25.3609 136.983 25.3609H138.174C138.505 25.3609 138.654 25.5097 138.654 25.8405V27.4285H142.971C143.302 27.4285 143.451 27.5773 143.451 27.9082V28.851C143.451 29.1818 143.302 29.3307 142.971 29.3307H138.654V32.9862C138.654 33.6975 139.084 34.1276 139.795 34.1276H143.054ZM153.263 36.0298H145.473C145.142 36.0298 144.993 35.8809 144.993 35.5501V34.6073C144.993 34.2764 145.142 34.1276 145.473 34.1276H152.718C153.263 34.1276 153.462 33.8795 153.462 33.3832V33.3005C153.462 32.8208 153.263 32.5562 152.718 32.5562H147.176C145.638 32.5562 144.828 31.7457 144.828 30.2074V29.7773C144.828 28.2555 145.638 27.4285 147.176 27.4285H154.818C155.133 27.4285 155.298 27.5773 155.298 27.9082V28.851C155.298 29.1818 155.133 29.3307 154.818 29.3307H147.739C147.193 29.3307 146.994 29.5788 146.994 30.075V30.1577C146.994 30.6374 147.193 30.9021 147.739 30.9021H153.263C154.802 30.9021 155.629 31.7126 155.629 33.2509V33.681C155.629 35.2027 154.802 36.0298 153.263 36.0298Z" fill="white"/>
</svg>
